<svg aria-hidden="true" data-prefix="fal" data-icon="drone" class="svg-inline--fa fa-drone" xmlns="http://www.w3.org/2000/svg" viewBox="0 0 512 512"><path fill="currentColor" d="M112 32c39.6 0 72.5 28.8 78.9 66.6 1.5 8.7 9.7 14.6 18.4 13.1s14.6-9.7 13.1-18.4C213.6 40.4 167.5 0 112 0 50.1 0 0 50.1 0 112c0 55.5 40.4 101.6 93.4 110.5 8.7 1.5 17-4.4 18.4-13.1s-4.4-17-13.1-18.4C60.8 184.5 32 151.6 32 112c0-44.2 35.8-80 80-80zm286.7 0c44.2 0 80 35.8 80 80 0 39.6-28.8 72.5-66.6 78.9-8.7 1.5-14.6 9.7-13.1 18.4s9.7 14.6 18.4 13.1c53-8.9 93.4-54.9 93.4-110.5 0-61.9-50.1-112-112-112-55.6.1-101.7 40.5-110.6 93.5-1.5 8.7 4.4 17 13.1 18.4s17-4.4 18.4-13.1c6.4-37.9 39.3-66.7 79-66.7zM32 398.7c0-39.6 28.8-72.5 66.6-78.9 8.7-1.5 14.6-9.7 13.1-18.4s-9.7-14.6-18.4-13.1C40.4 297.1 0 343.2 0 398.7c0 61.9 50.1 112 112 112 55.5 0 101.6-40.4 110.5-93.4 1.5-8.7-4.4-17-13.1-18.4s-17 4.4-18.4 13.1c-6.3 37.8-39.3 66.6-78.9 66.6-44.2 0-80-35.8-80-80zm366.7 80c-39.6 0-72.5-28.8-78.9-66.6-1.5-8.7-9.7-14.6-18.4-13.1s-14.6 9.7-13.1 18.4c8.9 53 54.9 93.4 110.5 93.4 61.9 0 112-50.1 112-112 0-55.5-40.4-101.6-93.4-110.5-8.7-1.5-17 4.4-18.4 13.1s4.4 17 13.1 18.4c37.8 6.3 66.6 39.3 66.6 78.9 0 44.2-35.8 80-80 80zM112 432c17.7 0 32-14.3 32-32 0-2.9-.4-5.6-1.1-8.3l39.7-39.7h146.8l39.7 39.7c-.7 2.6-1.1 5.4-1.1 8.3 0 17.7 14.3 32 32 32s32-14.3 32-32-14.3-32-32-32c-2.9 0-5.6.4-8.3 1.1L352 329.4V182.6l39.7-39.7c2.6.7 5.4 1.1 8.3 1.1 17.7 0 32-14.3 32-32s-14.3-32-32-32-32 14.3-32 32c0 2.9.4 5.6 1.1 8.3L329.4 160H182.6l-39.7-39.7c.7-2.6 1.1-5.4 1.1-8.3 0-17.7-14.3-32-32-32s-32 14.3-32 32 14.3 32 32 32c2.9 0 5.6-.4 8.3-1.1l39.7 39.7v146.8l-39.7 39.7c-2.6-.7-5.4-1.1-8.3-1.1-17.7 0-32 14.3-32 32s14.3 32 32 32zm80-112V192h128v128H192z"/></svg>