<svg aria-hidden="true" data-prefix="fal" data-icon="sensor" class="svg-inline--fa fa-sensor" xmlns="http://www.w3.org/2000/svg" viewBox="0 0 448 512"><path fill="currentColor" d="M64 64c-17.7 0-32 14.3-32 32v320c0 17.7 14.3 32 32 32h320c17.7 0 32-14.3 32-32V96c0-17.7-14.3-32-32-32H64zM0 96c0-35.3 28.7-64 64-64h320c35.3 0 64 28.7 64 64v320c0 35.3-28.7 64-64 64H64c-35.3 0-64-28.7-64-64V96zm128 48v128c0 8.8-7.2 16-16 16s-16-7.2-16-16V144c0-8.8 7.2-16 16-16s16 7.2 16 16zm64 0v128c0 8.8-7.2 16-16 16s-16-7.2-16-16V144c0-8.8 7.2-16 16-16s16 7.2 16 16z"/></svg>